{
    "accessors" : [
        {
            "bufferView" : 0,
            "componentType" : 5123,
            "count" : 4440,
            "max" : [
                1511
            ],
            "min" : [
                0
            ],
            "type" : "SCALAR"
        },
        {
            "bufferView" : 1,
            "componentType" : 5126,
            "count" : 1512,
            "max" : [
                -0.0591592937707901,
                0.12449999898672104,
                -0.01432405598461628
            ],
            "min" : [
                -0.11214788258075714,
                -0.12449714541435242,
                -0.016074055805802345
            ],
            "type" : "VEC3"
        },
        {
            "bufferView" : 2,
            "componentType" : 5126,
            "count" : 1512,
            "max" : [
                1.0,
                0.9998779296875,
                1.0
            ],
            "min" : [
                -1.0,
                -0.999969482421875,
                -1.0
            ],
            "type" : "VEC3"
        },
        {
            "bufferView" : 3,
            "componentType" : 5126,
            "count" : 1512,
            "max" : [
                1.0,
                1.0,
                1.995552565858816e-06,
                1.0
            ],
            "min" : [
                -0.9995612502098083,
                -1.0,
                -2.9044842904113466e-06,
                -1.0
            ],
            "type" : "VEC4"
        },
        {
            "bufferView" : 4,
            "componentType" : 5126,
            "count" : 1512,
            "max" : [
                6.164634704589844,
                1.006488584447652
            ],
            "min" : [
                -0.16534698009490967,
                0.9934999998658895
            ],
            "type" : "VEC2"
        },
        {
            "bufferView" : 5,
            "componentType" : 5123,
            "count" : 30750,
            "max" : [
                12511
            ],
            "min" : [
                0
            ],
            "type" : "SCALAR"
        },
        {
            "bufferView" : 6,
            "componentType" : 5126,
            "count" : 12512,
            "max" : [
                -0.046757880598306656,
                0.12800000607967377,
                0.01067594438791275
            ],
            "min" : [
                -0.11764787882566452,
                -0.12800000607967377,
                -0.019724056124687195
            ],
            "type" : "VEC3"
        },
        {
            "bufferView" : 7,
            "componentType" : 5126,
            "count" : 12512,
            "max" : [
                1.0,
                1.0,
                1.0
            ],
            "min" : [
                -1.0,
                -1.0,
                -1.0
            ],
            "type" : "VEC3"
        },
        {
            "bufferView" : 8,
            "componentType" : 5126,
            "count" : 12512,
            "max" : [
                1.0,
                1.0,
                1.0,
                1.0
            ],
            "min" : [
                -1.0,
                -1.0,
                -1.0,
                -1.0
            ],
            "type" : "VEC4"
        },
        {
            "bufferView" : 9,
            "componentType" : 5126,
            "count" : 12512,
            "max" : [
                7.404818058013916,
                5.71238899230957
            ],
            "min" : [
                -2.9321532249450684,
                -2.1415927410125732
            ],
            "type" : "VEC2"
        },
        {
            "bufferView" : 10,
            "componentType" : 5123,
            "count" : 3072,
            "max" : [
                1443
            ],
            "min" : [
                0
            ],
            "type" : "SCALAR"
        },
        {
            "bufferView" : 11,
            "componentType" : 5126,
            "count" : 1444,
            "max" : [
                -0.04350787773728371,
                0.12800000607967377,
                0.005475944373756647
            ],
            "min" : [
                -0.046507880091667175,
                -0.12800000607967377,
                -0.014524055644869804
            ],
            "type" : "VEC3"
        },
        {
            "bufferView" : 12,
            "componentType" : 5126,
            "count" : 1444,
            "max" : [
                1.0,
                1.0,
                1.0
            ],
            "min" : [
                -1.0,
                -1.0,
                -1.0
            ],
            "type" : "VEC3"
        },
        {
            "bufferView" : 13,
            "componentType" : 5126,
            "count" : 1444,
            "max" : [
                1.0,
                1.0,
                1.0,
                1.0
            ],
            "min" : [
                -1.0,
                -1.0,
                -1.0,
                -1.0
            ],
            "type" : "VEC4"
        },
        {
            "bufferView" : 14,
            "componentType" : 5126,
            "count" : 1444,
            "max" : [
                7.169262409210205,
                4.141592741012573
            ],
            "min" : [
                -0.008999999612569809,
                -2.1415927410125732
            ],
            "type" : "VEC2"
        },
        {
            "bufferView" : 15,
            "componentType" : 5123,
            "count" : 5772,
            "max" : [
                2019
            ],
            "min" : [
                0
            ],
            "type" : "SCALAR"
        },
        {
            "bufferView" : 16,
            "componentType" : 5126,
            "count" : 2020,
            "max" : [
                -0.0006478790892288089,
                0.125,
                -0.016074055805802345
            ],
            "min" : [
                -0.17064787447452545,
                -0.125,
                -0.03194905444979668
            ],
            "type" : "VEC3"
        },
        {
            "bufferView" : 17,
            "componentType" : 5126,
            "count" : 2020,
            "max" : [
                1.0,
                1.0,
                1.0
            ],
            "min" : [
                -1.0,
                -1.0,
                -1.0
            ],
            "type" : "VEC3"
        },
        {
            "bufferView" : 18,
            "componentType" : 5126,
            "count" : 2020,
            "max" : [
                1.0,
                1.0,
                0.09266097843647003,
                1.0
            ],
            "min" : [
                -1.0,
                -1.0,
                -1.0,
                -1.0
            ],
            "type" : "VEC4"
        },
        {
            "bufferView" : 19,
            "componentType" : 5126,
            "count" : 2020,
            "max" : [
                6.2831854820251465,
                1.0850000008940697
            ],
            "min" : [
                -0.3695991337299347,
                0.6976089775562286
            ],
            "type" : "VEC2"
        },
        {
            "bufferView" : 20,
            "componentType" : 5123,
            "count" : 12072,
            "max" : [
                4791
            ],
            "min" : [
                0
            ],
            "type" : "SCALAR"
        },
        {
            "bufferView" : 21,
            "componentType" : 5126,
            "count" : 4792,
            "max" : [
                -0.05564787983894348,
                0.12800000607967377,
                0.005675944034010172
            ],
            "min" : [
                -0.11564788222312927,
                -0.12800000607967377,
                -0.01432405598461628
            ],
            "type" : "VEC3"
        },
        {
            "bufferView" : 22,
            "componentType" : 5126,
            "count" : 4792,
            "max" : [
                1.0,
                1.0,
                1.0
            ],
            "min" : [
                -1.0,
                -1.0,
                -1.0
            ],
            "type" : "VEC3"
        },
        {
            "bufferView" : 23,
            "componentType" : 5126,
            "count" : 4792,
            "max" : [
                1.0,
                1.0,
                1.0,
                1.0
            ],
            "min" : [
                -1.0,
                -1.0,
                -1.0,
                -1.0
            ],
            "type" : "VEC4"
        },
        {
            "bufferView" : 24,
            "componentType" : 5126,
            "count" : 4792,
            "max" : [
                9.515812873840332,
                1.5
            ],
            "min" : [
                -2.96705961227417,
                0.5
            ],
            "type" : "VEC2"
        }
    ],
    "asset" : {
        "generator" : "Khronos Blender glTF 2.0 exporter",
        "version" : "2.0"
    },
    "bufferViews" : [
        {
            "buffer" : 0,
            "byteLength" : 8880,
            "byteOffset" : 0,
            "target" : 34963
        },
        {
            "buffer" : 0,
            "byteLength" : 18144,
            "byteOffset" : 8880,
            "target" : 34962
        },
        {
            "buffer" : 0,
            "byteLength" : 18144,
            "byteOffset" : 27024,
            "target" : 34962
        },
        {
            "buffer" : 0,
            "byteLength" : 24192,
            "byteOffset" : 45168,
            "target" : 34962
        },
        {
            "buffer" : 0,
            "byteLength" : 12096,
            "byteOffset" : 69360,
            "target" : 34962
        },
        {
            "buffer" : 0,
            "byteLength" : 61500,
            "byteOffset" : 81456,
            "target" : 34963
        },
        {
            "buffer" : 0,
            "byteLength" : 150144,
            "byteOffset" : 142956,
            "target" : 34962
        },
        {
            "buffer" : 0,
            "byteLength" : 150144,
            "byteOffset" : 293100,
            "target" : 34962
        },
        {
            "buffer" : 0,
            "byteLength" : 200192,
            "byteOffset" : 443244,
            "target" : 34962
        },
        {
            "buffer" : 0,
            "byteLength" : 100096,
            "byteOffset" : 643436,
            "target" : 34962
        },
        {
            "buffer" : 0,
            "byteLength" : 6144,
            "byteOffset" : 743532,
            "target" : 34963
        },
        {
            "buffer" : 0,
            "byteLength" : 17328,
            "byteOffset" : 749676,
            "target" : 34962
        },
        {
            "buffer" : 0,
            "byteLength" : 17328,
            "byteOffset" : 767004,
            "target" : 34962
        },
        {
            "buffer" : 0,
            "byteLength" : 23104,
            "byteOffset" : 784332,
            "target" : 34962
        },
        {
            "buffer" : 0,
            "byteLength" : 11552,
            "byteOffset" : 807436,
            "target" : 34962
        },
        {
            "buffer" : 0,
            "byteLength" : 11544,
            "byteOffset" : 818988,
            "target" : 34963
        },
        {
            "buffer" : 0,
            "byteLength" : 24240,
            "byteOffset" : 830532,
            "target" : 34962
        },
        {
            "buffer" : 0,
            "byteLength" : 24240,
            "byteOffset" : 854772,
            "target" : 34962
        },
        {
            "buffer" : 0,
            "byteLength" : 32320,
            "byteOffset" : 879012,
            "target" : 34962
        },
        {
            "buffer" : 0,
            "byteLength" : 16160,
            "byteOffset" : 911332,
            "target" : 34962
        },
        {
            "buffer" : 0,
            "byteLength" : 24144,
            "byteOffset" : 927492,
            "target" : 34963
        },
        {
            "buffer" : 0,
            "byteLength" : 57504,
            "byteOffset" : 951636,
            "target" : 34962
        },
        {
            "buffer" : 0,
            "byteLength" : 57504,
            "byteOffset" : 1009140,
            "target" : 34962
        },
        {
            "buffer" : 0,
            "byteLength" : 76672,
            "byteOffset" : 1066644,
            "target" : 34962
        },
        {
            "buffer" : 0,
            "byteLength" : 38336,
            "byteOffset" : 1143316,
            "target" : 34962
        }
    ],
    "buffers" : [
        {
            "byteLength" : 1181652,
            "uri" : "bed-assembly.bin"
        }
    ],
    "materials" : [
        {
            "alphaMode" : "BLEND",
            "name" : "1.007",
            "pbrMetallicRoughness" : {
                "baseColorFactor" : [
                    0.250980406999588,
                    0.250980406999588,
                    0.250980406999588,
                    1.0
                ],
                "metallicFactor" : 0.0
            }
        },
        {
            "alphaMode" : "BLEND",
            "name" : "2.007",
            "pbrMetallicRoughness" : {
                "baseColorFactor" : [
                    0.9960784316062927,
                    0.9960784316062927,
                    1.0,
                    1.0
                ],
                "metallicFactor" : 0.0
            }
        },
        {
            "alphaMode" : "BLEND",
            "name" : "3.007",
            "pbrMetallicRoughness" : {
                "baseColorFactor" : [
                    0.019607843831181526,
                    0.019607843831181526,
                    0.019607843831181526,
                    1.0
                ],
                "metallicFactor" : 0.0
            }
        },
        {
            "alphaMode" : "BLEND",
            "name" : "4.007",
            "pbrMetallicRoughness" : {
                "baseColorFactor" : [
                    0.7450980544090271,
                    0.7372549176216125,
                    0.729411780834198,
                    1.0
                ],
                "metallicFactor" : 0.0
            }
        },
        {
            "alphaMode" : "BLEND",
            "name" : "5.007",
            "pbrMetallicRoughness" : {
                "baseColorFactor" : [
                    0.800000011920929,
                    0.0,
                    0.0,
                    1.0
                ],
                "metallicFactor" : 0.0
            }
        }
    ],
    "meshes" : [
        {
            "name" : "mesh 2 End Cap-1-1.001",
            "primitives" : [
                {
                    "attributes" : {
                        "NORMAL" : 2,
                        "POSITION" : 1,
                        "TANGENT" : 3,
                        "TEXCOORD_0" : 4
                    },
                    "indices" : 0,
                    "material" : 3
                },
                {
                    "attributes" : {
                        "NORMAL" : 7,
                        "POSITION" : 6,
                        "TANGENT" : 8,
                        "TEXCOORD_0" : 9
                    },
                    "indices" : 5,
                    "material" : 2
                },
                {
                    "attributes" : {
                        "NORMAL" : 12,
                        "POSITION" : 11,
                        "TANGENT" : 13,
                        "TEXCOORD_0" : 14
                    },
                    "indices" : 10,
                    "material" : 4
                },
                {
                    "attributes" : {
                        "NORMAL" : 17,
                        "POSITION" : 16,
                        "TANGENT" : 18,
                        "TEXCOORD_0" : 19
                    },
                    "indices" : 15,
                    "material" : 1
                },
                {
                    "attributes" : {
                        "NORMAL" : 22,
                        "POSITION" : 21,
                        "TANGENT" : 23,
                        "TEXCOORD_0" : 24
                    },
                    "indices" : 20,
                    "material" : 0
                }
            ]
        }
    ],
    "nodes" : [
        {
            "mesh" : 0,
            "name" : "mesh 2 End Cap-1-1.001",
            "rotation" : [
                -0.0012352702906355262,
                0.7071056962013245,
                -0.7071057558059692,
                -0.0012352700578048825
            ],
            "scale" : [
                22.99201774597168,
                22.99201774597168,
                22.992013931274414
            ],
            "translation" : [
                -2.007579803466797,
                -3.9811642169952393,
                2.948845863342285
            ]
        }
    ],
    "scene" : 0,
    "scenes" : [
        {
            "name" : "Scene",
            "nodes" : [
                0
            ]
        }
    ]
}
