{
    "accessors" : [
        {
            "bufferView" : 0,
            "componentType" : 5123,
            "count" : 7014,
            "max" : [
                2493
            ],
            "min" : [
                0
            ],
            "type" : "SCALAR"
        },
        {
            "bufferView" : 1,
            "componentType" : 5126,
            "count" : 2494,
            "max" : [
                -0.008102982304990292,
                0.004999999888241291,
                0.2826789617538452
            ],
            "min" : [
                -0.027552982792258263,
                -0.004999999888241291,
                0.2676789462566376
            ],
            "type" : "VEC3"
        },
        {
            "bufferView" : 2,
            "componentType" : 5126,
            "count" : 2494,
            "max" : [
                1.0,
                1.0,
                1.0
            ],
            "min" : [
                -1.0,
                -1.0,
                -1.0
            ],
            "type" : "VEC3"
        },
        {
            "bufferView" : 3,
            "componentType" : 5126,
            "count" : 2494,
            "max" : [
                1.0,
                1.0,
                1.0,
                1.0
            ],
            "min" : [
                -1.0,
                -1.0,
                -1.0,
                -1.0
            ],
            "type" : "VEC4"
        },
        {
            "bufferView" : 4,
            "componentType" : 5126,
            "count" : 2494,
            "max" : [
                6.597344398498535,
                5.71238899230957
            ],
            "min" : [
                -0.3141592741012573,
                -2.1415927410125732
            ],
            "type" : "VEC2"
        },
        {
            "bufferView" : 5,
            "componentType" : 5123,
            "count" : 39846,
            "max" : [
                14750
            ],
            "min" : [
                0
            ],
            "type" : "SCALAR"
        },
        {
            "bufferView" : 6,
            "componentType" : 5126,
            "count" : 14751,
            "max" : [
                0.038497019559144974,
                0.031950000673532486,
                0.2851789593696594
            ],
            "min" : [
                -0.033502981066703796,
                -0.03319999948143959,
                -0.10177108645439148
            ],
            "type" : "VEC3"
        },
        {
            "bufferView" : 7,
            "componentType" : 5126,
            "count" : 14751,
            "max" : [
                1.0,
                1.0,
                1.0
            ],
            "min" : [
                -1.0,
                -1.0,
                -1.0
            ],
            "type" : "VEC3"
        },
        {
            "bufferView" : 8,
            "componentType" : 5126,
            "count" : 14751,
            "max" : [
                1.0,
                1.0,
                1.0,
                1.0
            ],
            "min" : [
                -1.0,
                -1.0,
                -1.0,
                -1.0
            ],
            "type" : "VEC4"
        },
        {
            "bufferView" : 9,
            "componentType" : 5126,
            "count" : 14751,
            "max" : [
                8.639379501342773,
                1.5
            ],
            "min" : [
                -4.833219528198242,
                0.5
            ],
            "type" : "VEC2"
        },
        {
            "bufferView" : 10,
            "componentType" : 5123,
            "count" : 45804,
            "max" : [
                15371
            ],
            "min" : [
                0
            ],
            "type" : "SCALAR"
        },
        {
            "bufferView" : 11,
            "componentType" : 5126,
            "count" : 15372,
            "max" : [
                -0.00800298247486353,
                0.029999999329447746,
                0.04056663066148758
            ],
            "min" : [
                -0.04750298336148262,
                -0.03020000085234642,
                -0.11006861925125122
            ],
            "type" : "VEC3"
        },
        {
            "bufferView" : 12,
            "componentType" : 5126,
            "count" : 15372,
            "max" : [
                1.0,
                1.0,
                1.0
            ],
            "min" : [
                -1.0,
                -1.0,
                -1.0
            ],
            "type" : "VEC3"
        },
        {
            "bufferView" : 13,
            "componentType" : 5126,
            "count" : 15372,
            "max" : [
                1.0,
                1.0,
                1.0,
                1.0
            ],
            "min" : [
                -1.0,
                -1.0,
                -1.0,
                -1.0
            ],
            "type" : "VEC4"
        },
        {
            "bufferView" : 14,
            "componentType" : 5126,
            "count" : 15372,
            "max" : [
                7.996781349182129,
                4.926990747451782
            ],
            "min" : [
                -0.3695991337299347,
                -2.4164819717407227
            ],
            "type" : "VEC2"
        },
        {
            "bufferView" : 15,
            "componentType" : 5123,
            "count" : 7080,
            "max" : [
                2712
            ],
            "min" : [
                0
            ],
            "type" : "SCALAR"
        },
        {
            "bufferView" : 16,
            "componentType" : 5126,
            "count" : 2713,
            "max" : [
                0.01049701776355505,
                0.03999999910593033,
                0.035178929567337036
            ],
            "min" : [
                -0.009502981789410114,
                0.029999999329447746,
                -0.04482107609510422
            ],
            "type" : "VEC3"
        },
        {
            "bufferView" : 17,
            "componentType" : 5126,
            "count" : 2713,
            "max" : [
                1.0,
                1.0,
                1.0
            ],
            "min" : [
                -1.0,
                -1.0,
                -1.0
            ],
            "type" : "VEC3"
        },
        {
            "bufferView" : 18,
            "componentType" : 5126,
            "count" : 2713,
            "max" : [
                1.0,
                1.0,
                1.0,
                1.0
            ],
            "min" : [
                -1.0,
                -1.0,
                -1.0,
                -1.0
            ],
            "type" : "VEC4"
        },
        {
            "bufferView" : 19,
            "componentType" : 5126,
            "count" : 2713,
            "max" : [
                10.424375534057617,
                5.71238899230957
            ],
            "min" : [
                -3.1415927410125732,
                -2.9269907474517822
            ],
            "type" : "VEC2"
        },
        {
            "bufferView" : 20,
            "componentType" : 5123,
            "count" : 1356,
            "max" : [
                543
            ],
            "min" : [
                0
            ],
            "type" : "SCALAR"
        },
        {
            "bufferView" : 21,
            "componentType" : 5126,
            "count" : 544,
            "max" : [
                -0.010152982547879219,
                -0.008390399627387524,
                0.04555802792310715
            ],
            "min" : [
                -0.01650298200547695,
                -0.029980400577187538,
                0.02700873464345932
            ],
            "type" : "VEC3"
        },
        {
            "bufferView" : 22,
            "componentType" : 5126,
            "count" : 544,
            "max" : [
                1.0,
                1.0,
                1.0
            ],
            "min" : [
                -1.0,
                -1.0,
                -1.0
            ],
            "type" : "VEC3"
        },
        {
            "bufferView" : 23,
            "componentType" : 5126,
            "count" : 544,
            "max" : [
                1.0,
                1.0,
                1.0,
                1.0
            ],
            "min" : [
                -1.0,
                -1.0,
                -1.0,
                -1.0
            ],
            "type" : "VEC4"
        },
        {
            "bufferView" : 24,
            "componentType" : 5126,
            "count" : 544,
            "max" : [
                6.2831854820251465,
                1.0098551996052265
            ],
            "min" : [
                -0.41887903213500977,
                0.9918211996555328
            ],
            "type" : "VEC2"
        },
        {
            "bufferView" : 25,
            "componentType" : 5123,
            "count" : 44400,
            "max" : [
                15567
            ],
            "min" : [
                0
            ],
            "type" : "SCALAR"
        },
        {
            "bufferView" : 26,
            "componentType" : 5126,
            "count" : 15568,
            "max" : [
                0.03384701907634735,
                0.02799384482204914,
                0.279177188873291
            ],
            "min" : [
                -0.018552981317043304,
                -0.028789924457669258,
                -0.04282071068882942
            ],
            "type" : "VEC3"
        },
        {
            "bufferView" : 27,
            "componentType" : 5126,
            "count" : 15568,
            "max" : [
                1.0,
                1.0,
                1.0
            ],
            "min" : [
                -1.0,
                -1.0,
                -1.0
            ],
            "type" : "VEC3"
        },
        {
            "bufferView" : 28,
            "componentType" : 5126,
            "count" : 15568,
            "max" : [
                0.04828275367617607,
                1.0,
                1.0,
                1.0
            ],
            "min" : [
                -0.04828277602791786,
                -1.0,
                -1.0,
                -1.0
            ],
            "type" : "VEC4"
        },
        {
            "bufferView" : 29,
            "componentType" : 5126,
            "count" : 15568,
            "max" : [
                10.64865779876709,
                2.5707963705062866
            ],
            "min" : [
                -6.2831854820251465,
                0.9911500001326203
            ],
            "type" : "VEC2"
        },
        {
            "bufferView" : 30,
            "componentType" : 5123,
            "count" : 13938,
            "max" : [
                5232
            ],
            "min" : [
                0
            ],
            "type" : "SCALAR"
        },
        {
            "bufferView" : 31,
            "componentType" : 5126,
            "count" : 5233,
            "max" : [
                0.016847018152475357,
                0.02498353086411953,
                0.2851789593696594
            ],
            "min" : [
                -0.03255298361182213,
                -0.02498353086411953,
                -0.07957108318805695
            ],
            "type" : "VEC3"
        },
        {
            "bufferView" : 32,
            "componentType" : 5126,
            "count" : 5233,
            "max" : [
                1.0,
                1.0,
                1.0
            ],
            "min" : [
                -1.0,
                -1.0,
                -1.0
            ],
            "type" : "VEC3"
        },
        {
            "bufferView" : 33,
            "componentType" : 5126,
            "count" : 5233,
            "max" : [
                1.0,
                1.0,
                1.0,
                1.0
            ],
            "min" : [
                -1.0,
                -1.0,
                -1.0,
                -1.0
            ],
            "type" : "VEC4"
        },
        {
            "bufferView" : 34,
            "componentType" : 5126,
            "count" : 5233,
            "max" : [
                8.998369216918945,
                1.0199999995529652
            ],
            "min" : [
                -4.804788589477539,
                0.9756484087556601
            ],
            "type" : "VEC2"
        }
    ],
    "asset" : {
        "generator" : "Khronos Blender glTF 2.0 exporter",
        "version" : "2.0"
    },
    "bufferViews" : [
        {
            "buffer" : 0,
            "byteLength" : 14028,
            "byteOffset" : 0,
            "target" : 34963
        },
        {
            "buffer" : 0,
            "byteLength" : 29928,
            "byteOffset" : 14028,
            "target" : 34962
        },
        {
            "buffer" : 0,
            "byteLength" : 29928,
            "byteOffset" : 43956,
            "target" : 34962
        },
        {
            "buffer" : 0,
            "byteLength" : 39904,
            "byteOffset" : 73884,
            "target" : 34962
        },
        {
            "buffer" : 0,
            "byteLength" : 19952,
            "byteOffset" : 113788,
            "target" : 34962
        },
        {
            "buffer" : 0,
            "byteLength" : 79692,
            "byteOffset" : 133740,
            "target" : 34963
        },
        {
            "buffer" : 0,
            "byteLength" : 177012,
            "byteOffset" : 213432,
            "target" : 34962
        },
        {
            "buffer" : 0,
            "byteLength" : 177012,
            "byteOffset" : 390444,
            "target" : 34962
        },
        {
            "buffer" : 0,
            "byteLength" : 236016,
            "byteOffset" : 567456,
            "target" : 34962
        },
        {
            "buffer" : 0,
            "byteLength" : 118008,
            "byteOffset" : 803472,
            "target" : 34962
        },
        {
            "buffer" : 0,
            "byteLength" : 91608,
            "byteOffset" : 921480,
            "target" : 34963
        },
        {
            "buffer" : 0,
            "byteLength" : 184464,
            "byteOffset" : 1013088,
            "target" : 34962
        },
        {
            "buffer" : 0,
            "byteLength" : 184464,
            "byteOffset" : 1197552,
            "target" : 34962
        },
        {
            "buffer" : 0,
            "byteLength" : 245952,
            "byteOffset" : 1382016,
            "target" : 34962
        },
        {
            "buffer" : 0,
            "byteLength" : 122976,
            "byteOffset" : 1627968,
            "target" : 34962
        },
        {
            "buffer" : 0,
            "byteLength" : 14160,
            "byteOffset" : 1750944,
            "target" : 34963
        },
        {
            "buffer" : 0,
            "byteLength" : 32556,
            "byteOffset" : 1765104,
            "target" : 34962
        },
        {
            "buffer" : 0,
            "byteLength" : 32556,
            "byteOffset" : 1797660,
            "target" : 34962
        },
        {
            "buffer" : 0,
            "byteLength" : 43408,
            "byteOffset" : 1830216,
            "target" : 34962
        },
        {
            "buffer" : 0,
            "byteLength" : 21704,
            "byteOffset" : 1873624,
            "target" : 34962
        },
        {
            "buffer" : 0,
            "byteLength" : 2712,
            "byteOffset" : 1895328,
            "target" : 34963
        },
        {
            "buffer" : 0,
            "byteLength" : 6528,
            "byteOffset" : 1898040,
            "target" : 34962
        },
        {
            "buffer" : 0,
            "byteLength" : 6528,
            "byteOffset" : 1904568,
            "target" : 34962
        },
        {
            "buffer" : 0,
            "byteLength" : 8704,
            "byteOffset" : 1911096,
            "target" : 34962
        },
        {
            "buffer" : 0,
            "byteLength" : 4352,
            "byteOffset" : 1919800,
            "target" : 34962
        },
        {
            "buffer" : 0,
            "byteLength" : 88800,
            "byteOffset" : 1924152,
            "target" : 34963
        },
        {
            "buffer" : 0,
            "byteLength" : 186816,
            "byteOffset" : 2012952,
            "target" : 34962
        },
        {
            "buffer" : 0,
            "byteLength" : 186816,
            "byteOffset" : 2199768,
            "target" : 34962
        },
        {
            "buffer" : 0,
            "byteLength" : 249088,
            "byteOffset" : 2386584,
            "target" : 34962
        },
        {
            "buffer" : 0,
            "byteLength" : 124544,
            "byteOffset" : 2635672,
            "target" : 34962
        },
        {
            "buffer" : 0,
            "byteLength" : 27876,
            "byteOffset" : 2760216,
            "target" : 34963
        },
        {
            "buffer" : 0,
            "byteLength" : 62796,
            "byteOffset" : 2788092,
            "target" : 34962
        },
        {
            "buffer" : 0,
            "byteLength" : 62796,
            "byteOffset" : 2850888,
            "target" : 34962
        },
        {
            "buffer" : 0,
            "byteLength" : 83728,
            "byteOffset" : 2913684,
            "target" : 34962
        },
        {
            "buffer" : 0,
            "byteLength" : 41864,
            "byteOffset" : 2997412,
            "target" : 34962
        }
    ],
    "buffers" : [
        {
            "byteLength" : 3039276,
            "uri" : "crane-arm-assembly.bin"
        }
    ],
    "materials" : [
        {
            "alphaMode" : "BLEND",
            "name" : "1.004",
            "pbrMetallicRoughness" : {
                "baseColorFactor" : [
                    0.250980406999588,
                    0.250980406999588,
                    0.250980406999588,
                    1.0
                ],
                "metallicFactor" : 0.0
            }
        },
        {
            "alphaMode" : "BLEND",
            "name" : "2.004",
            "pbrMetallicRoughness" : {
                "baseColorFactor" : [
                    0.7764706015586853,
                    0.7568627595901489,
                    0.7372549176216125,
                    1.0
                ],
                "metallicFactor" : 0.0
            }
        },
        {
            "alphaMode" : "BLEND",
            "name" : "3.004",
            "pbrMetallicRoughness" : {
                "baseColorFactor" : [
                    0.9960784316062927,
                    0.9960784316062927,
                    1.0,
                    1.0
                ],
                "metallicFactor" : 0.0
            }
        },
        {
            "alphaMode" : "BLEND",
            "name" : "4.004",
            "pbrMetallicRoughness" : {
                "baseColorFactor" : [
                    0.019607843831181526,
                    0.019607843831181526,
                    0.019607843831181526,
                    1.0
                ],
                "metallicFactor" : 0.0
            }
        },
        {
            "alphaMode" : "BLEND",
            "name" : "5.004",
            "pbrMetallicRoughness" : {
                "baseColorFactor" : [
                    0.800000011920929,
                    0.0,
                    0.0,
                    1.0
                ],
                "metallicFactor" : 0.0
            }
        },
        {
            "alphaMode" : "BLEND",
            "name" : "6.003",
            "pbrMetallicRoughness" : {
                "baseColorFactor" : [
                    0.7450980544090271,
                    0.7372549176216125,
                    0.729411780834198,
                    1.0
                ],
                "metallicFactor" : 0.0
            }
        },
        {
            "alphaMode" : "BLEND",
            "name" : "7.003",
            "pbrMetallicRoughness" : {
                "metallicFactor" : 0.0
            }
        }
    ],
    "meshes" : [
        {
            "name" : "mesh 4 Cube Corner Connector-1-2.001",
            "primitives" : [
                {
                    "attributes" : {
                        "NORMAL" : 2,
                        "POSITION" : 1,
                        "TANGENT" : 3,
                        "TEXCOORD_0" : 4
                    },
                    "indices" : 0,
                    "material" : 5
                },
                {
                    "attributes" : {
                        "NORMAL" : 7,
                        "POSITION" : 6,
                        "TANGENT" : 8,
                        "TEXCOORD_0" : 9
                    },
                    "indices" : 5,
                    "material" : 0
                },
                {
                    "attributes" : {
                        "NORMAL" : 12,
                        "POSITION" : 11,
                        "TANGENT" : 13,
                        "TEXCOORD_0" : 14
                    },
                    "indices" : 10,
                    "material" : 3
                },
                {
                    "attributes" : {
                        "NORMAL" : 17,
                        "POSITION" : 16,
                        "TANGENT" : 18,
                        "TEXCOORD_0" : 19
                    },
                    "indices" : 15,
                    "material" : 4
                },
                {
                    "attributes" : {
                        "NORMAL" : 22,
                        "POSITION" : 21,
                        "TANGENT" : 23,
                        "TEXCOORD_0" : 24
                    },
                    "indices" : 20,
                    "material" : 6
                },
                {
                    "attributes" : {
                        "NORMAL" : 27,
                        "POSITION" : 26,
                        "TANGENT" : 28,
                        "TEXCOORD_0" : 29
                    },
                    "indices" : 25,
                    "material" : 1
                },
                {
                    "attributes" : {
                        "NORMAL" : 32,
                        "POSITION" : 31,
                        "TANGENT" : 33,
                        "TEXCOORD_0" : 34
                    },
                    "indices" : 30,
                    "material" : 2
                }
            ]
        }
    ],
    "nodes" : [
        {
            "mesh" : 0,
            "name" : "mesh 4 Cube Corner Connector-1-2.001",
            "rotation" : [
                -0.0017385275568813086,
                0.7065838575363159,
                0.0017359693301841617,
                0.7076250314712524
            ],
            "scale" : [
                22.992015838623047,
                22.992015838623047,
                22.99201774597168
            ],
            "translation" : [
                -2.01189923286438,
                -1.803924798965454,
                5.882007122039795
            ]
        }
    ],
    "scene" : 0,
    "scenes" : [
        {
            "name" : "Scene",
            "nodes" : [
                0
            ]
        }
    ]
}
