{
    "accessors" : [
        {
            "bufferView" : 0,
            "componentType" : 5123,
            "count" : 24381,
            "max" : [
                24380
            ],
            "min" : [
                0
            ],
            "type" : "SCALAR"
        },
        {
            "bufferView" : 1,
            "componentType" : 5126,
            "count" : 24381,
            "max" : [
                78.36595153808594,
                315.0166015625,
                -160.70794677734375
            ],
            "min" : [
                59.43405532836914,
                296.084716796875,
                -177.2739715576172
            ],
            "type" : "VEC3"
        },
        {
            "bufferView" : 2,
            "componentType" : 5126,
            "count" : 24381,
            "max" : [
                0.9999971389770508,
                0.999997615814209,
                0.8983713388442993
            ],
            "min" : [
                -0.9999975562095642,
                -0.9999974370002747,
                -0.9989104866981506
            ],
            "type" : "VEC3"
        },
        {
            "bufferView" : 3,
            "componentType" : 5123,
            "count" : 24381,
            "max" : [
                2,
                0,
                0,
                0
            ],
            "min" : [
                2,
                0,
                0,
                0
            ],
            "type" : "VEC4"
        },
        {
            "bufferView" : 4,
            "componentType" : 5126,
            "count" : 24381,
            "max" : [
                1.0,
                0.0,
                0.0,
                0.0
            ],
            "min" : [
                1.0,
                0.0,
                0.0,
                0.0
            ],
            "type" : "VEC4"
        },
        {
            "bufferView" : 5,
            "componentType" : 5123,
            "count" : 2469,
            "max" : [
                1412
            ],
            "min" : [
                0
            ],
            "type" : "SCALAR"
        },
        {
            "bufferView" : 6,
            "componentType" : 5126,
            "count" : 1413,
            "max" : [
                137.0,
                138.72682189941406,
                -67.52336883544922
            ],
            "min" : [
                0.0,
                81.9614486694336,
                -111.84387969970703
            ],
            "type" : "VEC3"
        },
        {
            "bufferView" : 7,
            "componentType" : 5126,
            "count" : 1413,
            "max" : [
                1.0,
                0.9999002814292908,
                0.998399019241333
            ],
            "min" : [
                -1.0,
                -0.9974983930587769,
                -0.9995996952056885
            ],
            "type" : "VEC3"
        },
        {
            "bufferView" : 8,
            "componentType" : 5123,
            "count" : 1413,
            "max" : [
                2,
                0,
                0,
                0
            ],
            "min" : [
                0,
                0,
                0,
                0
            ],
            "type" : "VEC4"
        },
        {
            "bufferView" : 9,
            "componentType" : 5126,
            "count" : 1413,
            "max" : [
                1.0,
                1.0,
                0.0,
                0.0
            ],
            "min" : [
                1.0,
                0.0,
                0.0,
                0.0
            ],
            "type" : "VEC4"
        },
        {
            "bufferView" : 10,
            "componentType" : 5125,
            "count" : 187830,
            "max" : [
                148957
            ],
            "min" : [
                0
            ],
            "type" : "SCALAR"
        },
        {
            "bufferView" : 11,
            "componentType" : 5126,
            "count" : 148958,
            "max" : [
                115.48714447021484,
                322.7600402832031,
                -5.173335552215576
            ],
            "min" : [
                21.499618530273438,
                0.0,
                -274.6192626953125
            ],
            "type" : "VEC3"
        },
        {
            "bufferView" : 12,
            "componentType" : 5126,
            "count" : 148958,
            "max" : [
                1.0,
                1.0,
                1.0
            ],
            "min" : [
                -1.0,
                -1.0,
                -1.0
            ],
            "type" : "VEC3"
        },
        {
            "bufferView" : 13,
            "componentType" : 5123,
            "count" : 148958,
            "max" : [
                2,
                2,
                0,
                0
            ],
            "min" : [
                0,
                0,
                0,
                0
            ],
            "type" : "VEC4"
        },
        {
            "bufferView" : 14,
            "componentType" : 5126,
            "count" : 148958,
            "max" : [
                1.0,
                1.0,
                0.0,
                0.0
            ],
            "min" : [
                0.0,
                0.0,
                0.0,
                0.0
            ],
            "type" : "VEC4"
        },
        {
            "bufferView" : 15,
            "componentType" : 5126,
            "count" : 3,
            "max" : [
                0.0024070485960692167,
                0.0002406858402537182,
                0.024007681757211685,
                0.0,
                0.02412285842001438,
                0.02377883531153202,
                0.004096995573490858,
                0.0,
                0.0024429806508123875,
                0.004096072167158127,
                -4.275651917851064e-06,
                0.0,
                2.411846160888672,
                0.0,
                1.6188867092132568,
                1.0
            ],
            "min" : [
                -0.02412727102637291,
                -9.962942567653954e-05,
                -0.024125264957547188,
                0.0,
                -0.023884274065494537,
                -0.0024310986045747995,
                0.0004383105842862278,
                0.0,
                -0.0003409745404496789,
                -0.024126838892698288,
                -0.023777082562446594,
                0.0,
                -2.4284701347351074,
                -2.094740390777588,
                -6.6364030838012695,
                1.0
            ],
            "type" : "MAT4"
        }
    ],
    "asset" : {
        "generator" : "Khronos Blender glTF 2.0 exporter",
        "version" : "2.0"
    },
    "bufferViews" : [
        {
            "buffer" : 0,
            "byteLength" : 48762,
            "byteOffset" : 0,
            "target" : 34963
        },
        {
            "buffer" : 0,
            "byteLength" : 292572,
            "byteOffset" : 48764,
            "target" : 34962
        },
        {
            "buffer" : 0,
            "byteLength" : 292572,
            "byteOffset" : 341336,
            "target" : 34962
        },
        {
            "buffer" : 0,
            "byteLength" : 195048,
            "byteOffset" : 633908,
            "target" : 34962
        },
        {
            "buffer" : 0,
            "byteLength" : 390096,
            "byteOffset" : 828956,
            "target" : 34962
        },
        {
            "buffer" : 0,
            "byteLength" : 4938,
            "byteOffset" : 1219052,
            "target" : 34963
        },
        {
            "buffer" : 0,
            "byteLength" : 16956,
            "byteOffset" : 1223992,
            "target" : 34962
        },
        {
            "buffer" : 0,
            "byteLength" : 16956,
            "byteOffset" : 1240948,
            "target" : 34962
        },
        {
            "buffer" : 0,
            "byteLength" : 11304,
            "byteOffset" : 1257904,
            "target" : 34962
        },
        {
            "buffer" : 0,
            "byteLength" : 22608,
            "byteOffset" : 1269208,
            "target" : 34962
        },
        {
            "buffer" : 0,
            "byteLength" : 751320,
            "byteOffset" : 1291816,
            "target" : 34963
        },
        {
            "buffer" : 0,
            "byteLength" : 1787496,
            "byteOffset" : 2043136,
            "target" : 34962
        },
        {
            "buffer" : 0,
            "byteLength" : 1787496,
            "byteOffset" : 3830632,
            "target" : 34962
        },
        {
            "buffer" : 0,
            "byteLength" : 1191664,
            "byteOffset" : 5618128,
            "target" : 34962
        },
        {
            "buffer" : 0,
            "byteLength" : 2383328,
            "byteOffset" : 6809792,
            "target" : 34962
        },
        {
            "buffer" : 0,
            "byteLength" : 192,
            "byteOffset" : 9193120
        }
    ],
    "buffers" : [
        {
            "byteLength" : 9193312,
            "uri" : "uarm-single-assembly.bin"
        }
    ],
    "materials" : [
        {
            "name" : "Black",
            "pbrMetallicRoughness" : {
                "baseColorFactor" : [
                    0.0,
                    0.0,
                    0.0,
                    1.0
                ],
                "metallicFactor" : 0.0
            }
        },
        {
            "name" : "Material",
            "pbrMetallicRoughness" : {
                "baseColorFactor" : [
                    0.6392822360885475,
                    0.6392822360885475,
                    0.6392822360885475,
                    1.0
                ],
                "metallicFactor" : 0.0
            }
        },
        {
            "name" : "White",
            "pbrMetallicRoughness" : {
                "baseColorFactor" : [
                    0.6400000190734865,
                    0.6400000190734865,
                    0.6400000190734865,
                    1.0
                ],
                "metallicFactor" : 0.0
            }
        },
        {
            "name" : "White.001",
            "pbrMetallicRoughness" : {
                "baseColorFactor" : [
                    0.6400000190734865,
                    0.6400000190734865,
                    0.6400000190734865,
                    1.0
                ],
                "metallicFactor" : 0.0
            }
        }
    ],
    "meshes" : [
        {
            "name" : "Uarm metal Assembly",
            "primitives" : [
                {
                    "attributes" : {
                        "JOINTS_0" : 3,
                        "NORMAL" : 2,
                        "POSITION" : 1,
                        "WEIGHTS_0" : 4
                    },
                    "indices" : 0,
                    "material" : 2
                },
                {
                    "attributes" : {
                        "JOINTS_0" : 8,
                        "NORMAL" : 7,
                        "POSITION" : 6,
                        "WEIGHTS_0" : 9
                    },
                    "indices" : 5,
                    "material" : 0
                },
                {
                    "attributes" : {
                        "JOINTS_0" : 13,
                        "NORMAL" : 12,
                        "POSITION" : 11,
                        "WEIGHTS_0" : 14
                    },
                    "indices" : 10,
                    "material" : 1
                }
            ]
        }
    ],
    "nodes" : [
        {
            "children" : [
                4,
                5
            ],
            "name" : "Armature",
            "translation" : [
                0.0,
                -3.5459647178649902,
                -4.780099868774414
            ]
        },
        {
            "name" : "Camera",
            "rotation" : [
                0.483536034822464,
                0.33687159419059753,
                -0.20870360732078552,
                0.7804827094078064
            ],
            "translation" : [
                7.481131553649902,
                1.7977004051208496,
                6.5076398849487305
            ]
        },
        {
            "name" : "Lamp",
            "rotation" : [
                -0.013683988712728024,
                0.9461727142333984,
                -0.3201197385787964,
                0.04575442150235176
            ],
            "translation" : [
                0.02065300941467285,
                2.3578972816467285,
                -3.2927815914154053
            ]
        },
        {
            "name" : "Lamp.001",
            "rotation" : [
                0.4408923089504242,
                -0.49780699610710144,
                -0.6773514747619629,
                0.3146384358406067
            ],
            "scale" : [
                1.0,
                0.9999999403953552,
                1.0
            ],
            "translation" : [
                -0.09028792381286621,
                2.6081972122192383,
                4.161884784698486
            ]
        },
        {
            "mesh" : 0,
            "name" : "Uarm metal Assembly",
            "rotation" : [
                0.508074164390564,
                0.49192389845848083,
                -0.4989263415336609,
                0.5009433031082153
            ],
            "scale" : [
                0.024129247292876244,
                0.024129251018166542,
                0.024129249155521393
            ],
            "skin" : 0,
            "translation" : [
                -2.4284701347351074,
                0.0,
                1.6188867092132568
            ]
        },
        {
            "children" : [
                6
            ],
            "name" : "Armature_rotator"
        },
        {
            "children" : [
                7
            ],
            "name" : "Armature_humerus",
            "rotation" : [
                -0.10289238393306732,
                0.9937639236450195,
                -0.004691745154559612,
                0.04271385073661804
            ],
            "scale" : [
                1.0,
                1.0,
                0.9999999403953552
            ],
            "translation" : [
                0.0,
                2.294828414916992,
                0.0
            ]
        },
        {
            "name" : "Armature_radius",
            "rotation" : [
                -0.5356177091598511,
                0.48390474915504456,
                0.5457436442375183,
                0.42557457089424133
            ],
            "scale" : [
                0.9999999403953552,
                0.9999998211860657,
                0.9999998807907104
            ],
            "translation" : [
                -4.0046870708465576e-08,
                4.069110870361328,
                4.423782229423523e-09
            ]
        }
    ],
    "scene" : 0,
    "scenes" : [
        {
            "name" : "Scene",
            "nodes" : [
                0,
                3,
                2,
                1
            ]
        }
    ],
    "skins" : [
        {
            "inverseBindMatrices" : 15,
            "joints" : [
                5,
                6,
                7
            ],
            "skeleton" : 0
        }
    ]
}
